<svg width="213" height="300" viewBox="0 0 213 300" fill="none" xmlns="http://www.w3.org/2000/svg">
<path d="M0 27.3773C0 14.6714 10.3002 4.37117 23.0061 4.37117H189.34C202.046 4.37117 212.347 14.6714 212.347 27.3773V276.994C212.347 289.7 202.046 300 189.34 300H23.0061C10.3002 300 0 289.7 0 276.994V27.3773Z" fill="black"/>
<path d="M0 23.0061C0 10.3002 10.3002 0 23.0061 0H189.34C202.046 0 212.347 10.3002 212.347 23.0061V274.233C212.347 286.939 202.046 297.239 189.34 297.239H23.0061C10.3002 297.239 0 286.939 0 274.233V23.0061Z" fill="white"/>
<path d="M25.0767 0H189.34C202.046 0 212.347 10.3002 212.347 23.0061V235.123C212.347 247.829 202.046 258.129 189.34 258.129H25.0767V0Z" fill="black"/>
<path d="M25.1372 258.251V0.0101548C25.1372 0.0101548 4.58785 -0.970183 0 16.7676V273.198C0 273.198 0 257.354 25.1372 258.251Z" fill="url(#paint0_linear_236_791)"/>
<path d="M0 267.906C0 262.506 4.37758 258.129 9.77761 258.129H168.98C178.319 258.129 185.89 265.699 185.89 275.038V280.33C185.89 289.669 178.319 297.239 168.98 297.239H20.1304C9.01268 297.239 0 288.227 0 277.109V267.906Z" fill="black"/>
<rect x="4.37117" y="258.129" width="186.12" height="39.1104" rx="19.5552" fill="white"/>
<path d="M25.0767 24.7316V19.6702C10.0767 19.6702 2.1089 25.5752 0 28.5276V36.1196C5.2454 26.6411 18.9034 24.5782 25.0767 24.7316Z" fill="#EA4335"/>
<path d="M25.0767 34.2791V29.2178C10.0767 29.2178 2.1089 35.1227 0 38.0751V45.6672C5.2454 36.1886 18.9034 34.1258 25.0767 34.2791Z" fill="#FBBC05"/>
<path d="M25.0767 43.8267V38.7653C10.0767 38.7653 2.1089 44.6702 0 47.6227V55.2147C5.2454 45.7362 18.9034 43.6733 25.0767 43.8267Z" fill="#34A853"/>
<path d="M25.0767 218.328V213.267C10.0767 213.267 2.1089 219.172 0 222.124V229.716C5.2454 220.238 18.9034 218.175 25.0767 218.328Z" fill="#34A853"/>
<path d="M25.0767 227.876V222.814C10.0767 222.814 2.1089 228.719 0 231.672V239.264C5.2454 229.785 18.9034 227.722 25.0767 227.876Z" fill="#FBBC05"/>
<path d="M25.0767 237.423V232.362C10.0767 232.362 2.1089 238.267 0 241.219V248.811C5.2454 239.333 18.9034 237.27 25.0767 237.423Z" fill="#EA4335"/>
<path d="M177.75 57.0322V40.7887H181.166V57.0322H177.75ZM177.75 38.1177V34.3597H181.166V38.1177H177.75Z" fill="white"/>
<path d="M175.264 43.7393C173.939 43.76 172.759 44.0602 171.723 44.64C170.709 45.2197 169.984 46.0376 169.549 47.0936V57.0322H166.133V40.7887H169.301V44.4225C169.86 43.3044 170.595 42.4141 171.506 41.7515C172.417 41.0683 173.38 40.6956 174.395 40.6334C174.602 40.6334 174.767 40.6334 174.891 40.6334C175.036 40.6334 175.161 40.6438 175.264 40.6645V43.7393Z" fill="white"/>
<path d="M147.422 52.2803C147.422 51.245 147.712 50.3443 148.291 49.5782C148.892 48.7914 149.71 48.191 150.745 47.7768C151.78 47.342 152.981 47.1246 154.348 47.1246C155.073 47.1246 155.808 47.1764 156.553 47.2799C157.319 47.3834 157.992 47.5491 158.572 47.7768V46.7519C158.572 45.6131 158.23 44.7228 157.547 44.0809C156.864 43.439 155.88 43.1181 154.596 43.1181C153.685 43.1181 152.826 43.2837 152.018 43.615C151.211 43.9256 150.352 44.3708 149.441 44.9505L148.291 42.6522C149.368 41.9275 150.445 41.3892 151.522 41.0372C152.619 40.6852 153.768 40.5092 154.969 40.5092C157.143 40.5092 158.851 41.089 160.094 42.2485C161.357 43.3873 161.988 45.0127 161.988 47.1246V53.181C161.988 53.5744 162.05 53.8539 162.175 54.0196C162.319 54.1852 162.558 54.2784 162.889 54.2991V57.0322C162.578 57.0943 162.299 57.1357 162.05 57.1565C161.802 57.1772 161.595 57.1875 161.429 57.1875C160.704 57.1875 160.156 57.0115 159.783 56.6595C159.41 56.3075 159.193 55.8934 159.131 55.4172L159.038 54.4854C158.334 55.3965 157.433 56.1005 156.336 56.5974C155.238 57.0943 154.13 57.3428 153.012 57.3428C151.936 57.3428 150.973 57.1254 150.124 56.6906C149.275 56.2351 148.612 55.6242 148.136 54.8581C147.66 54.092 147.422 53.2328 147.422 52.2803ZM157.764 53.2742C158.013 53.005 158.209 52.7358 158.354 52.4666C158.499 52.1975 158.572 51.9594 158.572 51.7523V49.8888C157.992 49.661 157.381 49.4954 156.739 49.3919C156.097 49.2676 155.466 49.2055 154.845 49.2055C153.602 49.2055 152.588 49.454 151.801 49.9509C151.035 50.4479 150.652 51.1311 150.652 52.0008C150.652 52.477 150.776 52.9325 151.025 53.3673C151.294 53.8022 151.666 54.1541 152.143 54.4233C152.64 54.6925 153.25 54.8271 153.975 54.8271C154.721 54.8271 155.435 54.6821 156.118 54.3923C156.801 54.1024 157.35 53.7297 157.764 53.2742Z" fill="white"/>
<path d="M138.494 57.0322V43.8324H136.319V41.1925H138.494V40.5403C138.494 39.2151 138.701 38.0659 139.115 37.0928C139.55 36.1196 140.15 35.3742 140.916 34.8566C141.703 34.3182 142.624 34.0491 143.68 34.0491C144.343 34.0491 144.995 34.1422 145.637 34.3286C146.279 34.4942 146.89 34.7324 147.469 35.0429L146.724 37.5897C146.413 37.3827 146.041 37.2274 145.606 37.1238C145.192 36.9996 144.788 36.9375 144.395 36.9375C143.608 36.9375 142.997 37.2377 142.562 37.8382C142.127 38.4386 141.91 39.3083 141.91 40.4471V41.1925H146.072V43.8324H141.91V57.0322H138.494Z" fill="white"/>
<path d="M118.942 52.2803C118.942 51.245 119.232 50.3443 119.811 49.5782C120.412 48.7914 121.23 48.191 122.265 47.7768C123.3 47.342 124.501 47.1246 125.868 47.1246C126.592 47.1246 127.327 47.1764 128.073 47.2799C128.839 47.3834 129.512 47.5491 130.092 47.7768V46.7519C130.092 45.6131 129.75 44.7228 129.067 44.0809C128.383 43.439 127.4 43.1181 126.116 43.1181C125.205 43.1181 124.346 43.2837 123.538 43.615C122.731 43.9256 121.871 44.3708 120.96 44.9505L119.811 42.6522C120.888 41.9275 121.965 41.3892 123.041 41.0372C124.139 40.6852 125.288 40.5092 126.489 40.5092C128.663 40.5092 130.371 41.089 131.613 42.2485C132.876 43.3873 133.508 45.0127 133.508 47.1246V53.181C133.508 53.5744 133.57 53.8539 133.694 54.0196C133.839 54.1852 134.077 54.2784 134.409 54.2991V57.0322C134.098 57.0943 133.819 57.1357 133.57 57.1565C133.322 57.1772 133.115 57.1875 132.949 57.1875C132.224 57.1875 131.676 57.0115 131.303 56.6595C130.93 56.3075 130.713 55.8934 130.651 55.4172L130.557 54.4854C129.853 55.3965 128.953 56.1005 127.855 56.5974C126.758 57.0943 125.65 57.3428 124.532 57.3428C123.455 57.3428 122.493 57.1254 121.644 56.6906C120.795 56.2351 120.132 55.6242 119.656 54.8581C119.18 54.092 118.942 53.2328 118.942 52.2803ZM129.284 53.2742C129.533 53.005 129.729 52.7358 129.874 52.4666C130.019 52.1975 130.092 51.9594 130.092 51.7523V49.8888C129.512 49.661 128.901 49.4954 128.259 49.3919C127.617 49.2676 126.986 49.2055 126.365 49.2055C125.122 49.2055 124.108 49.454 123.321 49.9509C122.555 50.4479 122.172 51.1311 122.172 52.0008C122.172 52.477 122.296 52.9325 122.544 53.3673C122.814 53.8022 123.186 54.1541 123.662 54.4233C124.159 54.6925 124.77 54.8271 125.495 54.8271C126.24 54.8271 126.955 54.6821 127.638 54.3923C128.321 54.1024 128.87 53.7297 129.284 53.2742Z" fill="white"/>
<path d="M117.756 56.1936C117.466 56.3386 117.103 56.4939 116.669 56.6595C116.234 56.8252 115.737 56.9701 115.178 57.0943C114.639 57.2186 114.08 57.2807 113.501 57.2807C112.797 57.2807 112.144 57.1564 111.544 56.908C110.943 56.6595 110.457 56.2661 110.084 55.7278C109.732 55.1687 109.556 54.4544 109.556 53.5847V43.4287H107.413V40.7887H109.556V35.4467H112.973V40.7887H116.513V43.4287H112.973V52.4977C113.014 53.0567 113.19 53.4709 113.501 53.74C113.832 54.0092 114.236 54.1438 114.712 54.1438C115.188 54.1438 115.644 54.061 116.078 53.8953C116.513 53.7297 116.834 53.5951 117.041 53.4916L117.756 56.1936Z" fill="white"/>
<path d="M99.2686 57.3428C97.9021 57.3428 96.608 57.1254 95.3864 56.6906C94.1647 56.2351 93.1191 55.5621 92.2495 54.6718L93.5229 52.3735C94.4546 53.2017 95.3864 53.8022 96.3181 54.1749C97.2706 54.5476 98.2127 54.7339 99.1444 54.7339C100.097 54.7339 100.873 54.5579 101.474 54.2059C102.074 53.8332 102.374 53.2949 102.374 52.5909C102.374 52.0732 102.219 51.6902 101.909 51.4417C101.598 51.1933 101.142 50.9759 100.542 50.7895C99.9623 50.6032 99.2583 50.3961 98.4301 50.1683C97.2706 49.8163 96.2974 49.454 95.5106 49.0813C94.7238 48.6879 94.1337 48.2117 93.7403 47.6526C93.3469 47.0936 93.1502 46.3792 93.1502 45.5096C93.1502 44.4536 93.4193 43.5529 93.9577 42.8075C94.496 42.0621 95.2414 41.4927 96.1939 41.0993C97.167 40.7059 98.2851 40.5092 99.5482 40.5092C100.728 40.5092 101.815 40.6956 102.809 41.0683C103.824 41.4203 104.714 41.9793 105.48 42.7454L104.021 45.0127C103.296 44.3501 102.55 43.8635 101.784 43.5529C101.039 43.2423 100.231 43.087 99.3618 43.087C98.8649 43.087 98.3887 43.1492 97.9331 43.2734C97.4776 43.3769 97.0946 43.584 96.784 43.8946C96.4941 44.1844 96.3492 44.5985 96.3492 45.1369C96.3492 45.5717 96.4734 45.9237 96.7219 46.1929C96.9703 46.462 97.343 46.6898 97.84 46.8762C98.3369 47.0625 98.9477 47.2696 99.6724 47.4973C100.935 47.87 102.012 48.2427 102.902 48.6154C103.793 48.9674 104.476 49.4333 104.952 50.013C105.449 50.5721 105.698 51.3485 105.698 52.3424C105.698 53.916 105.108 55.148 103.927 56.0384C102.768 56.908 101.215 57.3428 99.2686 57.3428Z" fill="white"/>
<path d="M74.7806 52.2803C74.7806 51.245 75.0705 50.3443 75.6503 49.5782C76.2507 48.7914 77.0686 48.191 78.1039 47.7768C79.1392 47.342 80.3401 47.1246 81.7066 47.1246C82.4313 47.1246 83.1664 47.1764 83.9118 47.2799C84.6779 47.3834 85.3508 47.5491 85.9306 47.7768V46.7519C85.9306 45.6131 85.5889 44.7228 84.9056 44.0809C84.2224 43.439 83.2388 43.1181 81.9551 43.1181C81.0441 43.1181 80.1848 43.2837 79.3773 43.615C78.5698 43.9256 77.7105 44.3708 76.7994 44.9505L75.6503 42.6522C76.727 41.9275 77.8036 41.3892 78.8803 41.0372C79.9777 40.6852 81.1269 40.5092 82.3278 40.5092C84.5019 40.5092 86.2101 41.089 87.4524 42.2485C88.7155 43.3873 89.347 45.0127 89.347 47.1246V53.181C89.347 53.5744 89.4091 53.8539 89.5333 54.0196C89.6783 54.1852 89.9164 54.2784 90.2477 54.2991V57.0322C89.9371 57.0943 89.6576 57.1357 89.4091 57.1565C89.1606 57.1772 88.9536 57.1875 88.7879 57.1875C88.0632 57.1875 87.5145 57.0115 87.1418 56.6595C86.7691 56.3075 86.5517 55.8934 86.4896 55.4172L86.3964 54.4854C85.6925 55.3965 84.7918 56.1005 83.6944 56.5974C82.597 57.0943 81.4892 57.3428 80.3711 57.3428C79.2944 57.3428 78.3316 57.1254 77.4827 56.6906C76.6338 56.2351 75.9712 55.6242 75.495 54.8581C75.0188 54.092 74.7806 53.2328 74.7806 52.2803ZM85.1231 53.2742C85.3715 53.005 85.5682 52.7358 85.7132 52.4666C85.8581 52.1975 85.9306 51.9594 85.9306 51.7523V49.8888C85.3508 49.661 84.74 49.4954 84.0981 49.3919C83.4563 49.2676 82.8247 49.2055 82.2036 49.2055C80.9612 49.2055 79.9467 49.454 79.1599 49.9509C78.3938 50.4479 78.0107 51.1311 78.0107 52.0008C78.0107 52.477 78.1349 52.9325 78.3834 53.3673C78.6526 53.8022 79.0253 54.1541 79.5015 54.4233C79.9984 54.6925 80.6092 54.8271 81.3339 54.8271C82.0793 54.8271 82.7937 54.6821 83.477 54.3923C84.1602 54.1024 84.7089 53.7297 85.1231 53.2742Z" fill="white"/>
<path d="M56.135 57.0322V34.9808H65.732C66.7259 34.9808 67.6369 35.1879 68.4651 35.602C69.2934 36.0161 70.0077 36.5648 70.6082 37.2481C71.2293 37.9314 71.7056 38.6975 72.0368 39.5464C72.3888 40.3953 72.5648 41.265 72.5648 42.1553C72.5648 43.1285 72.3888 44.0602 72.0368 44.9505C71.6848 45.8409 71.1776 46.607 70.515 47.2488C69.8731 47.8907 69.1174 48.3566 68.2477 48.6465L73.4345 57.0322H69.5211L64.7381 49.3608H59.6135V57.0322H56.135ZM59.6135 46.286H65.701C66.3428 46.286 66.9122 46.0997 67.4092 45.727C67.9061 45.3543 68.2995 44.8574 68.5894 44.2362C68.8792 43.5943 69.0242 42.9007 69.0242 42.1553C69.0242 41.3892 68.8585 40.7059 68.5273 40.1054C68.196 39.4843 67.7612 38.9873 67.2228 38.6146C66.7052 38.2419 66.1358 38.0556 65.5146 38.0556H59.6135V46.286Z" fill="white"/>
<circle cx="118.65" cy="123.6" r="48.3129" fill="white"/>
<path d="M118.65 75.2876L160.491 147.757H76.8103L118.65 75.2876Z" fill="black"/>
<path d="M118.65 171.913L160.491 99.444H76.8103L118.65 171.913Z" fill="black"/>
<path d="M155.801 123.6C155.801 144.118 139.168 160.751 118.65 160.751C98.1329 160.751 81.5002 144.118 81.5002 123.6C81.5002 103.083 98.1329 86.4501 118.65 86.4501C139.168 86.4501 155.801 103.083 155.801 123.6Z" fill="white" stroke="black" stroke-width="3"/>
<path d="M102.228 148.932C103.908 146.715 105.527 144.451 107.285 142.297C109.041 140.143 111.194 138.39 113.564 136.83C105.104 137.071 97.4745 134.367 89.8928 130.536C95.9282 130.07 101.731 129.626 107.553 130.946C99.9254 125.865 94.8068 118.676 89.9651 110.961C91.4338 111.644 92.728 112.229 94.0098 112.846C99.0349 115.26 103.99 117.785 108.226 121.476C110.691 123.623 112.809 126.062 114.592 128.791C114.86 129.201 115.121 129.617 115.5 130.026C111.571 117.215 113.902 104.834 118.009 92.3121C118.525 93.7918 118.971 95.0601 119.41 96.3302C120.951 100.783 122.369 105.266 123.131 109.936C124.189 116.422 123.575 122.739 121.376 128.922C121.301 129.137 121.242 129.357 121.226 129.615C124.132 125.494 127.779 122.157 132.024 119.457C136.226 116.784 140.754 114.735 145.305 112.689C141.142 119.506 136.512 125.92 130.256 130.728C132.989 130.527 135.857 130.188 138.73 130.138C141.618 130.085 144.509 130.319 147.408 130.541C139.721 134.566 131.719 137.286 122.808 136.804C127.676 139.882 131.076 144.222 134.133 149.218C128.267 146.591 122.738 143.937 119.255 138.366V154.889H117.942C117.739 149.281 117.538 143.687 117.337 138.092C113.906 143.883 108.175 146.493 102.457 149.12C102.381 149.057 102.304 148.995 102.228 148.933V148.932Z" fill="black"/>
<path d="M160.48 133.307L161.16 135.442L161.184 135.524H161.269H163.466L161.689 136.845L161.62 136.894L161.647 136.979L162.326 139.114L160.55 137.795L160.48 137.743L160.411 137.795L158.634 139.114L159.314 136.979L159.341 136.894L159.271 136.845L157.495 135.524H159.689H159.776L159.804 135.442L160.48 133.307Z" fill="#020202"/>
<path d="M162.105 125.086L162.784 127.223L162.809 127.306H162.893H165.09L163.314 128.624L163.244 128.676L163.271 128.758L163.951 130.895L162.174 129.574L162.105 129.522L162.035 129.574L160.259 130.895L160.938 128.758L160.965 128.676L160.896 128.624L159.119 127.306H161.314H161.401L161.428 127.223L162.105 125.086Z" fill="#020202"/>
<path d="M162.105 116.489L162.784 118.626L162.809 118.708H162.893H165.09L163.314 120.026L163.244 120.078L163.271 120.161L163.951 122.298L162.174 120.977L162.105 120.924L162.035 120.977L160.259 122.298L160.938 120.161L160.965 120.078L160.896 120.026L159.119 118.708H161.314H161.401L161.428 118.626L162.105 116.489Z" fill="#020202"/>
<path d="M160.48 108.271L161.159 110.406L161.184 110.488H161.269H163.466L161.689 111.809L161.62 111.859L161.647 111.943L162.326 114.078L160.55 112.759L160.48 112.707L160.411 112.759L158.634 114.078L159.314 111.943L159.341 111.859L159.271 111.809L157.495 110.488H159.689H159.776L159.804 110.406L160.48 108.271Z" fill="#020202"/>
<path d="M76.7883 133.307L76.1092 135.442L76.0843 135.524H75.9997H73.803L75.5793 136.845L75.6489 136.894L75.6216 136.979L74.9424 139.114L76.7187 137.795L76.7883 137.743L76.858 137.795L78.6343 139.114L77.9551 136.979L77.9277 136.894L77.9974 136.845L79.7737 135.524H77.5794H77.4924L77.465 135.442L76.7883 133.307Z" fill="#020202"/>
<path d="M75.1634 125.086L74.4843 127.223L74.4594 127.306H74.3748H72.1781L73.9544 128.624L74.024 128.676L73.9967 128.758L73.3175 130.895L75.0938 129.574L75.1634 129.522L75.2331 129.574L77.0094 130.895L76.3302 128.758L76.3028 128.676L76.3725 128.624L78.1488 127.306H75.9546H75.8675L75.8401 127.223L75.1634 125.086Z" fill="#020202"/>
<path d="M75.1634 116.489L74.4843 118.626L74.4594 118.708H74.3748H72.1781L73.9544 120.026L74.024 120.078L73.9967 120.161L73.3175 122.298L75.0938 120.977L75.1634 120.924L75.2331 120.977L77.0094 122.298L76.3302 120.161L76.3028 120.078L76.3725 120.026L78.1488 118.708H75.9546H75.8675L75.8401 118.626L75.1634 116.489Z" fill="#020202"/>
<path d="M76.7883 108.271L76.1092 110.406L76.0843 110.488H75.9997H73.803L75.5793 111.809L75.6489 111.859L75.6216 111.943L74.9424 114.078L76.7187 112.759L76.7883 112.707L76.858 112.759L78.6343 114.078L77.9551 111.943L77.9277 111.859L77.9974 111.809L79.7737 110.488H77.5794H77.4924L77.465 110.406L76.7883 108.271Z" fill="#020202"/>
<path d="M89.3852 155.123L87.1971 154.644L87.1135 154.625L87.0712 154.698L85.9729 156.6L85.717 154.401L85.7087 154.316L85.6218 154.298L83.4337 153.818L85.4637 152.939L85.5438 152.905L85.5333 152.819L85.2796 150.621L86.7886 152.277L86.8481 152.343L86.9261 152.307L88.9582 151.429L87.8611 153.33L87.8176 153.405L87.875 153.47L89.3852 155.123Z" fill="#020202"/>
<path d="M95.6922 160.64L93.5019 160.16L93.4184 160.14L93.3761 160.213L92.2777 162.116L92.024 159.918L92.0136 159.832L91.9288 159.815L89.7385 159.334L91.7707 158.456L91.8508 158.422L91.8403 158.336L91.5845 156.137L93.0956 157.794L93.153 157.858L93.2331 157.824L95.2631 156.945L94.1659 158.845L94.1224 158.921L94.1798 158.986L95.6922 160.64Z" fill="#020202"/>
<path d="M103.138 164.939L100.948 164.459L100.864 164.439L100.822 164.512L99.7236 166.415L99.4699 164.217L99.4595 164.131L99.3747 164.113L97.1844 163.633L99.2166 162.755L99.2967 162.721L99.2862 162.635L99.0303 160.436L100.541 162.092L100.599 162.157L100.679 162.123L102.709 161.244L101.612 163.144L101.568 163.22L101.626 163.284L103.138 164.939Z" fill="#020202"/>
<path d="M111.066 167.641L108.878 167.162L108.794 167.142L108.752 167.216L107.654 169.118L107.398 166.919L107.39 166.834L107.303 166.815L105.115 166.336L107.145 165.457L107.225 165.423L107.214 165.337L106.961 163.139L108.469 164.795L108.529 164.861L108.607 164.825L110.639 163.947L109.542 165.848L109.498 165.923L109.556 165.988L111.066 167.641Z" fill="#020202"/>
<path d="M131.231 82.6428L129.722 80.9873L129.664 80.9247L129.706 80.8515L130.804 78.9491L128.772 79.8269L128.694 79.8623L128.635 79.7963L127.126 78.1409L127.379 80.3385L127.39 80.4249L127.31 80.4591L125.28 81.3382L127.468 81.8172L127.555 81.8358L127.563 81.921L127.819 84.1198L128.916 82.2196L128.96 82.1442L129.044 82.1615L131.231 82.6428Z" fill="#020202"/>
<path d="M139.163 85.3469L137.652 83.6902L137.593 83.6276L137.636 83.5543L138.734 81.6519L136.704 82.531L136.624 82.5652L136.566 82.5004L135.055 80.8438L135.311 83.0426L135.322 83.129L135.242 83.1632L133.209 84.041L135.4 84.5213L135.484 84.5387L135.495 84.6251L135.749 86.8227L136.846 84.9224L136.889 84.847L136.974 84.8644L139.163 85.3469Z" fill="#020202"/>
<path d="M146.609 89.6459L145.098 87.9892L145.039 87.9266L145.081 87.8534L146.18 85.951L144.15 86.83L144.07 86.8642L144.012 86.7995L142.501 85.1428L142.757 87.3416L142.767 87.428L142.687 87.4622L140.655 88.34L142.845 88.8204L142.93 88.8377L142.941 88.9242L143.194 91.1217L144.291 89.2215L144.335 89.1461L144.42 89.1634L146.609 89.6459Z" fill="#020202"/>
<path d="M152.912 95.1613L151.403 93.5059L151.345 93.4433L151.387 93.37L152.485 91.4676L150.453 92.3454L150.375 92.3808L150.316 92.3149L148.807 90.6594L149.06 92.857L149.071 92.9434L148.991 92.9776L146.961 93.8567L149.149 94.3358L149.236 94.3543L149.244 94.4395L149.5 96.6383L150.597 94.7381L150.641 94.6627L150.725 94.68L152.912 95.1613Z" fill="#020202"/>
<path d="M131.974 164.504L130.495 166.187L130.438 166.25L130.481 166.323L131.614 168.205L129.566 167.364L129.488 167.33L129.429 167.397L127.951 169.08L128.164 166.878L128.173 166.791L128.093 166.758L126.047 165.916L128.226 165.398L128.313 165.377L128.319 165.292L128.535 163.089L129.667 164.969L129.712 165.044L129.796 165.025L131.974 164.504Z" fill="#020202"/>
<path d="M139.855 161.656L138.375 163.34L138.317 163.403L138.361 163.476L139.493 165.358L137.448 164.516L137.367 164.483L137.311 164.549L135.83 166.233L136.046 164.03L136.055 163.943L135.974 163.91L133.926 163.07L136.108 162.55L136.192 162.531L136.201 162.444L136.415 160.242L137.546 162.122L137.591 162.197L137.676 162.178L139.855 161.656Z" fill="#020202"/>
<path d="M147.222 157.223L145.741 158.907L145.683 158.971L145.727 159.043L146.86 160.925L144.814 160.083L144.733 160.05L144.677 160.116L143.196 161.8L143.412 159.597L143.421 159.51L143.341 159.478L141.293 158.637L143.474 158.117L143.558 158.098L143.567 158.011L143.781 155.81L144.913 157.69L144.957 157.764L145.042 157.745L147.222 157.223Z" fill="#020202"/>
<path d="M153.424 151.595L151.945 153.277L151.888 153.341L151.932 153.413L153.064 155.296L151.017 154.455L150.938 154.421L150.88 154.488L149.401 156.17L149.615 153.969L149.624 153.882L149.543 153.849L147.497 153.007L149.676 152.488L149.763 152.468L149.77 152.383L149.986 150.18L151.117 152.06L151.162 152.134L151.246 152.116L153.424 151.595Z" fill="#020202"/>
<path d="M88.8198 92.7957L86.6407 93.3144L86.5575 93.3354L86.5139 93.2629L85.3812 91.3808L85.1653 93.5838L85.1586 93.6692L85.072 93.6893L82.8929 94.208L84.9385 95.0501L85.0192 95.0828L85.0104 95.1695L84.7965 97.3712L86.2752 95.6887L86.3336 95.6217L86.4121 95.6557L88.4599 96.4965L87.3285 94.6164L87.2836 94.5418L87.3398 94.4761L88.8198 92.7957Z" fill="#020202"/>
<path d="M95.0256 87.1647L92.8444 87.6847L92.7613 87.7057L92.7176 87.6333L91.585 85.7511L91.3711 87.9529L91.3623 88.0395L91.2778 88.0584L89.0966 88.5784L91.1444 89.4192L91.2251 89.4519L91.2162 89.5385L91.0003 91.7416L92.4811 90.0578L92.5373 89.992L92.618 90.0248L94.6636 90.8668L93.5322 88.9868L93.4873 88.9122L93.5435 88.8464L95.0256 87.1647Z" fill="#020202"/>
<path d="M102.392 82.7308L100.211 83.2508L100.128 83.2718L100.084 83.1993L98.9517 81.3172L98.7379 83.519L98.729 83.6056L98.6446 83.6245L96.4634 84.1445L98.5111 84.9852L98.5918 85.018L98.583 85.1046L98.367 87.3077L99.8478 85.6239L99.904 85.5581L99.9847 85.5908L102.03 86.4329L100.899 84.5529L100.854 84.4783L100.91 84.4125L102.392 82.7308Z" fill="#020202"/>
<path d="M110.27 79.8869L108.091 80.4056L108.008 80.4266L107.964 80.3541L106.832 78.472L106.616 80.675L106.609 80.7604L106.522 80.7805L104.343 81.2992L106.389 82.1413L106.47 82.174L106.461 82.2607L106.247 84.4624L107.726 82.7799L107.784 82.7129L107.862 82.7469L109.91 83.5877L108.779 81.7076L108.734 81.633L108.79 81.5673L110.27 79.8869Z" fill="#020202"/>
<path d="M160.078 223.907C158.207 223.907 156.504 223.585 154.97 222.941C153.467 222.266 152.164 221.361 151.059 220.226C149.955 219.061 149.096 217.742 148.483 216.269C147.9 214.766 147.608 213.171 147.608 211.484C147.608 209.214 148.13 207.143 149.173 205.272C150.216 203.37 151.673 201.852 153.544 200.717C155.415 199.551 157.608 198.969 160.124 198.969C162.639 198.969 164.802 199.551 166.611 200.717C168.452 201.852 169.878 203.355 170.891 205.226C171.903 207.097 172.409 209.107 172.409 211.254C172.409 211.622 172.394 211.975 172.363 212.312C172.332 212.619 172.302 212.88 172.271 213.094H152.992C153.084 214.505 153.467 215.748 154.142 216.821C154.848 217.864 155.737 218.692 156.811 219.306C157.884 219.889 159.035 220.18 160.262 220.18C161.611 220.18 162.884 219.843 164.081 219.168C165.308 218.493 166.136 217.604 166.565 216.499L170.891 217.742C170.369 218.907 169.572 219.965 168.498 220.916C167.455 221.837 166.213 222.573 164.771 223.125C163.329 223.646 161.765 223.907 160.078 223.907ZM152.854 209.735H167.394C167.302 208.355 166.903 207.143 166.197 206.1C165.523 205.027 164.648 204.199 163.575 203.616C162.532 203.002 161.366 202.696 160.078 202.696C158.82 202.696 157.654 203.002 156.581 203.616C155.538 204.199 154.679 205.027 154.004 206.1C153.329 207.143 152.946 208.355 152.854 209.735Z" fill="white"/>
<path d="M135.379 189.858H140.441V216.499C140.441 217.726 140.625 218.508 140.993 218.846C141.361 219.183 141.821 219.352 142.373 219.352C142.987 219.352 143.554 219.291 144.076 219.168C144.628 219.045 145.103 218.892 145.502 218.708L146.238 222.711C145.502 223.018 144.628 223.278 143.615 223.493C142.603 223.708 141.698 223.815 140.901 223.815C139.183 223.815 137.833 223.34 136.852 222.389C135.87 221.407 135.379 220.058 135.379 218.34V189.858Z" fill="white"/>
<path d="M119.416 223.907C117.576 223.907 115.904 223.478 114.401 222.619C112.928 221.729 111.763 220.548 110.904 219.076V223.447H106.441V189.858H111.502V203.938C112.453 202.404 113.634 201.192 115.045 200.303C116.487 199.413 118.174 198.969 120.106 198.969C121.701 198.969 123.158 199.306 124.478 199.981C125.797 200.656 126.916 201.576 127.836 202.742C128.787 203.907 129.508 205.242 129.999 206.745C130.52 208.248 130.781 209.843 130.781 211.53C130.781 213.217 130.49 214.812 129.907 216.315C129.355 217.818 128.557 219.137 127.514 220.272C126.471 221.407 125.26 222.297 123.879 222.941C122.53 223.585 121.042 223.907 119.416 223.907ZM118.082 219.582C119.186 219.582 120.198 219.367 121.119 218.938C122.039 218.478 122.836 217.88 123.511 217.143C124.186 216.407 124.692 215.548 125.03 214.567C125.398 213.585 125.582 212.573 125.582 211.53C125.582 210.088 125.275 208.738 124.662 207.481C124.079 206.223 123.251 205.211 122.177 204.444C121.103 203.677 119.861 203.294 118.45 203.294C117.438 203.294 116.487 203.539 115.597 204.03C114.708 204.49 113.91 205.119 113.205 205.916C112.53 206.683 111.962 207.542 111.502 208.493V214.843C111.686 215.548 112.008 216.192 112.468 216.775C112.928 217.327 113.465 217.818 114.079 218.248C114.692 218.646 115.352 218.969 116.057 219.214C116.763 219.459 117.438 219.582 118.082 219.582Z" fill="white"/>
<path d="M95.2971 223.447V199.383H100.358V223.447H95.2971ZM95.2971 195.426V189.858H100.358V195.426H95.2971Z" fill="white"/>
<path d="M90.5668 215.027C90.5668 216.775 90.1067 218.278 89.1865 219.536C88.2969 220.794 87.0852 221.76 85.5515 222.435C84.0178 223.11 82.3306 223.447 80.4901 223.447H64.892V190.778H81.7325C83.2662 190.778 84.5852 191.192 85.6895 192.021C86.8245 192.818 87.6834 193.861 88.2662 195.15C88.8797 196.407 89.1865 197.726 89.1865 199.107C89.1865 200.702 88.7724 202.205 87.9441 203.616C87.1466 204.996 85.9963 206.024 84.4932 206.699C86.3644 207.251 87.8368 208.263 88.9104 209.735C90.0147 211.177 90.5668 212.941 90.5668 215.027ZM85.2754 214.061C85.2754 213.14 85.076 212.312 84.6773 211.576C84.3092 210.809 83.7877 210.196 83.1128 209.735C82.4687 209.245 81.7018 208.999 80.8122 208.999H70.0454V218.984H80.4901C81.4104 218.984 82.2233 218.769 82.9288 218.34C83.665 217.88 84.2325 217.281 84.6312 216.545C85.0607 215.778 85.2754 214.95 85.2754 214.061ZM70.0454 195.242V204.858H79.5239C80.3828 204.858 81.1497 204.659 81.8245 204.26C82.4993 203.831 83.0362 203.263 83.4349 202.558C83.8337 201.821 84.0331 200.993 84.0331 200.073C84.0331 199.122 83.849 198.294 83.4809 197.588C83.1128 196.852 82.6067 196.285 81.9625 195.886C81.349 195.456 80.6282 195.242 79.8 195.242H70.0454Z" fill="white"/>
<defs>
<linearGradient id="paint0_linear_236_791" x1="0" y1="128.711" x2="25.2006" y2="128.711" gradientUnits="userSpaceOnUse">
<stop/>
<stop offset="1" stop-color="#161616"/>
</linearGradient>
</defs>
</svg>
